<svg width="48" height="48" viewBox="0 0 48 48" fill="none" xmlns="http://www.w3.org/2000/svg">
<rect width="48" height="48" rx="24" fill="#70BBFD" fill-opacity="0.2"/>
<path d="M31.3125 34.5H16.5C15.7044 34.5 14.9413 34.1839 14.3787 33.6213C13.8161 33.0587 13.5 32.2957 13.5 31.5V21.75C13.5 21.6506 13.5395 21.5552 13.6098 21.4848C13.6802 21.4145 13.7755 21.375 13.875 21.375H18.75C18.7994 21.3747 18.8483 21.3842 18.894 21.4028C18.9397 21.4215 18.9812 21.449 19.0162 21.4838L21.1537 23.625H28.5C28.5995 23.625 28.6948 23.6645 28.7652 23.7348C28.8355 23.8052 28.875 23.9006 28.875 24V31.3125C28.8722 31.7057 28.9703 32.0931 29.16 32.4375C29.3638 32.8328 29.6724 33.1643 30.0521 33.3958C30.4317 33.6273 30.8678 33.7499 31.3125 33.75C31.412 33.75 31.5073 33.7895 31.5777 33.8598C31.648 33.9302 31.6875 34.0256 31.6875 34.125C31.6875 34.2245 31.648 34.3199 31.5777 34.3902C31.5073 34.4605 31.412 34.5 31.3125 34.5ZM14.25 22.125V31.5C14.25 32.0967 14.4871 32.669 14.909 33.091C15.331 33.513 15.9033 33.75 16.5 33.75H29.25C28.9412 33.4836 28.6865 33.1602 28.5 32.7975C28.2513 32.3368 28.1223 31.821 28.125 31.2975V24.375H21C20.9506 24.3753 20.9017 24.3658 20.856 24.3472C20.8103 24.3285 20.7688 24.301 20.7338 24.2663L18.5963 22.125H14.25Z" fill="#4291D8"/>
<path d="M31.5 34.5H31.3125C31.213 34.5 31.1177 34.4605 31.0473 34.3902C30.977 34.3198 30.9375 34.2245 30.9375 34.125C30.9375 34.0255 30.977 33.9302 31.0473 33.8598C31.1177 33.7895 31.213 33.75 31.3125 33.75H31.5C31.5995 33.75 31.6948 33.7895 31.7652 33.8598C31.8355 33.9302 31.875 34.0255 31.875 34.125C31.875 34.2245 31.8355 34.3198 31.7652 34.3902C31.6948 34.4605 31.5995 34.5 31.5 34.5ZM34.125 17.25H30.375C30.2755 17.25 30.1802 17.2105 30.1098 17.1402C30.0395 17.0698 30 16.9745 30 16.875V15.75C30 15.1533 30.2371 14.581 30.659 14.159C31.081 13.7371 31.6533 13.5 32.25 13.5C32.8467 13.5 33.419 13.7371 33.841 14.159C34.2629 14.581 34.5 15.1533 34.5 15.75V16.875C34.5 16.9745 34.4605 17.0698 34.3902 17.1402C34.3198 17.2105 34.2245 17.25 34.125 17.25ZM30.75 16.5H33.75V15.75C33.75 15.3522 33.592 14.9706 33.3107 14.6893C33.0294 14.408 32.6478 14.25 32.25 14.25C31.8522 14.25 31.4706 14.408 31.1893 14.6893C30.908 14.9706 30.75 15.3522 30.75 15.75V16.5Z" fill="#4291D8"/>
<path d="M30.375 31.5H28.5C28.4005 31.5 28.3052 31.4605 28.2348 31.3902C28.1645 31.3198 28.125 31.2245 28.125 31.125V24.375H21C20.9506 24.3753 20.9017 24.3658 20.856 24.3472C20.8103 24.3285 20.7688 24.301 20.7338 24.2662L18.5963 22.125H15.375C15.2755 22.125 15.1802 22.0855 15.1098 22.0152C15.0395 21.9448 15 21.8495 15 21.75V15.75C15 15.1533 15.2371 14.581 15.659 14.159C16.081 13.7371 16.6533 13.5 17.25 13.5H32.25C32.3495 13.5 32.4448 13.5395 32.5152 13.6098C32.5855 13.6802 32.625 13.7755 32.625 13.875C32.625 13.9745 32.5855 14.0698 32.5152 14.1402C32.4448 14.2105 32.3495 14.25 32.25 14.25C31.8522 14.25 31.4706 14.408 31.1893 14.6893C30.908 14.9706 30.75 15.3522 30.75 15.75V31.125C30.75 31.2245 30.7105 31.3198 30.6402 31.3902C30.5698 31.4605 30.4745 31.5 30.375 31.5ZM28.875 30.75H30V15.75C30.0002 15.1964 30.2045 14.6624 30.5737 14.25H17.25C16.8522 14.25 16.4706 14.408 16.1893 14.6893C15.908 14.9706 15.75 15.3522 15.75 15.75V21.375H18.75C18.7994 21.3747 18.8483 21.3842 18.894 21.4028C18.9397 21.4215 18.9812 21.449 19.0162 21.4838L21.1537 23.625H28.5C28.5995 23.625 28.6948 23.6645 28.7652 23.7348C28.8355 23.8052 28.875 23.9005 28.875 24V30.75Z" fill="#4291D8"/>
<path d="M32.25 33H28.83C28.7626 33.0002 28.6963 32.9822 28.6382 32.9478C28.5802 32.9135 28.5324 32.8642 28.5 32.805C28.2518 32.3441 28.1228 31.8285 28.125 31.305V31.125C28.125 31.0255 28.1645 30.9302 28.2349 30.8598C28.3052 30.7895 28.4006 30.75 28.5 30.75H30V18.375C30 18.2755 30.0395 18.1802 30.1099 18.1098C30.1802 18.0395 30.2756 18 30.375 18H32.25C32.3495 18 32.4449 18.0395 32.5152 18.1098C32.5855 18.1802 32.625 18.2755 32.625 18.375V32.625C32.625 32.7245 32.5855 32.8198 32.5152 32.8902C32.4449 32.9605 32.3495 33 32.25 33ZM29.0625 32.25H31.875V18.75H30.75V31.125C30.75 31.2245 30.7105 31.3198 30.6402 31.3902C30.5699 31.4605 30.4745 31.5 30.375 31.5H28.875C28.895 31.7587 28.9584 32.0123 29.0625 32.25Z" fill="#4291D8"/>
<path d="M31.3125 34.5C30.7329 34.5002 30.1643 34.3416 29.6685 34.0415C29.1727 33.7414 28.7686 33.3111 28.5 32.7975C28.4705 32.7406 28.4561 32.677 28.4582 32.6129C28.4602 32.5488 28.4787 32.4863 28.5118 32.4314C28.5449 32.3765 28.5915 32.331 28.6472 32.2992C28.703 32.2675 28.7659 32.2505 28.83 32.25H31.875V21.75C31.875 21.6505 31.9145 21.5552 31.9848 21.4848C32.0552 21.4145 32.1505 21.375 32.25 21.375H34.125C34.2245 21.375 34.3198 21.4145 34.3902 21.4848C34.4605 21.5552 34.5 21.6505 34.5 21.75V31.3125C34.5043 32.1405 34.1847 32.9374 33.6094 33.5329C33.0342 34.1285 32.2489 34.4755 31.4212 34.5H31.3125ZM29.5575 33C29.7839 33.2375 30.0562 33.4265 30.3579 33.5554C30.6596 33.6844 30.9844 33.7506 31.3125 33.75H31.3687C32.006 33.7372 32.6128 33.4745 33.0582 33.0186C33.5037 32.5626 33.7521 31.9499 33.75 31.3125V22.125H32.625V32.625C32.625 32.7245 32.5855 32.8198 32.5152 32.8902C32.4448 32.9605 32.3495 33 32.25 33H29.5575ZM28.125 16.875H21.375C21.2755 16.875 21.1802 16.8355 21.1098 16.7652C21.0395 16.6948 21 16.5995 21 16.5C21 16.4005 21.0395 16.3052 21.1098 16.2348C21.1802 16.1645 21.2755 16.125 21.375 16.125H28.125C28.2245 16.125 28.3198 16.1645 28.3902 16.2348C28.4605 16.3052 28.5 16.4005 28.5 16.5C28.5 16.5995 28.4605 16.6948 28.3902 16.7652C28.3198 16.8355 28.2245 16.875 28.125 16.875ZM28.125 18.75H21.375C21.2755 18.75 21.1802 18.7105 21.1098 18.6402C21.0395 18.5698 21 18.4745 21 18.375C21 18.2755 21.0395 18.1802 21.1098 18.1098C21.1802 18.0395 21.2755 18 21.375 18H28.125C28.2245 18 28.3198 18.0395 28.3902 18.1098C28.4605 18.1802 28.5 18.2755 28.5 18.375C28.5 18.4745 28.4605 18.5698 28.3902 18.6402C28.3198 18.7105 28.2245 18.75 28.125 18.75ZM28.125 20.625H21.375C21.2755 20.625 21.1802 20.5855 21.1098 20.5152C21.0395 20.4448 21 20.3495 21 20.25C21 20.1505 21.0395 20.0552 21.1098 19.9848C21.1802 19.9145 21.2755 19.875 21.375 19.875H28.125C28.2245 19.875 28.3198 19.9145 28.3902 19.9848C28.4605 20.0552 28.5 20.1505 28.5 20.25C28.5 20.3495 28.4605 20.4448 28.3902 20.5152C28.3198 20.5855 28.2245 20.625 28.125 20.625ZM28.125 22.5H21.375C21.2755 22.5 21.1802 22.4605 21.1098 22.3902C21.0395 22.3198 21 22.2245 21 22.125C21 22.0255 21.0395 21.9302 21.1098 21.8598C21.1802 21.7895 21.2755 21.75 21.375 21.75H28.125C28.2245 21.75 28.3198 21.7895 28.3902 21.8598C28.4605 21.9302 28.5 22.0255 28.5 22.125C28.5 22.2245 28.4605 22.3198 28.3902 22.3902C28.3198 22.4605 28.2245 22.5 28.125 22.5ZM18.375 19.875H17.625C17.5255 19.875 17.4302 19.8355 17.3598 19.7652C17.2895 19.6948 17.25 19.5995 17.25 19.5C17.25 19.4005 17.2895 19.3052 17.3598 19.2348C17.4302 19.1645 17.5255 19.125 17.625 19.125H18.375C18.4745 19.125 18.5698 19.0855 18.6402 19.0152C18.7105 18.9448 18.75 18.8495 18.75 18.75C18.75 18.6505 18.7105 18.5552 18.6402 18.4848C18.5698 18.4145 18.4745 18.375 18.375 18.375C18.0766 18.375 17.7905 18.2565 17.5795 18.0455C17.3685 17.8345 17.25 17.5484 17.25 17.25C17.25 16.9516 17.3685 16.6655 17.5795 16.4545C17.7905 16.2435 18.0766 16.125 18.375 16.125H19.125C19.2245 16.125 19.3198 16.1645 19.3902 16.2348C19.4605 16.3052 19.5 16.4005 19.5 16.5C19.5 16.5995 19.4605 16.6948 19.3902 16.7652C19.3198 16.8355 19.2245 16.875 19.125 16.875H18.375C18.2755 16.875 18.1802 16.9145 18.1098 16.9848C18.0395 17.0552 18 17.1505 18 17.25C18 17.3495 18.0395 17.4448 18.1098 17.5152C18.1802 17.5855 18.2755 17.625 18.375 17.625C18.6734 17.625 18.9595 17.7435 19.1705 17.9545C19.3815 18.1655 19.5 18.4516 19.5 18.75C19.5 19.0484 19.3815 19.3345 19.1705 19.5455C18.9595 19.7565 18.6734 19.875 18.375 19.875Z" fill="#4291D8"/>
<path d="M18.375 16.875C18.2755 16.875 18.1802 16.8355 18.1098 16.7652C18.0395 16.6948 18 16.5995 18 16.5V15.75C18 15.6505 18.0395 15.5552 18.1098 15.4848C18.1802 15.4145 18.2755 15.375 18.375 15.375C18.4745 15.375 18.5698 15.4145 18.6402 15.4848C18.7105 15.5552 18.75 15.6505 18.75 15.75V16.5C18.75 16.5995 18.7105 16.6948 18.6402 16.7652C18.5698 16.8355 18.4745 16.875 18.375 16.875ZM18.375 20.625C18.2755 20.625 18.1802 20.5855 18.1098 20.5152C18.0395 20.4448 18 20.3495 18 20.25V19.5C18 19.4005 18.0395 19.3052 18.1098 19.2348C18.1802 19.1645 18.2755 19.125 18.375 19.125C18.4745 19.125 18.5698 19.1645 18.6402 19.2348C18.7105 19.3052 18.75 19.4005 18.75 19.5V20.25C18.75 20.3495 18.7105 20.4448 18.6402 20.5152C18.5698 20.5855 18.4745 20.625 18.375 20.625ZM24 30.375H18C17.5027 30.375 17.0258 30.1775 16.6742 29.8258C16.3225 29.4742 16.125 28.9973 16.125 28.5C16.125 28.0027 16.3225 27.5258 16.6742 27.1742C17.0258 26.8225 17.5027 26.625 18 26.625H24C24.4973 26.625 24.9742 26.8225 25.3258 27.1742C25.6775 27.5258 25.875 28.0027 25.875 28.5C25.875 28.9973 25.6775 29.4742 25.3258 29.8258C24.9742 30.1775 24.4973 30.375 24 30.375ZM18 27.375C17.7016 27.375 17.4155 27.4935 17.2045 27.7045C16.9935 27.9155 16.875 28.2016 16.875 28.5C16.875 28.7984 16.9935 29.0845 17.2045 29.2955C17.4155 29.5065 17.7016 29.625 18 29.625H24C24.2984 29.625 24.5845 29.5065 24.7955 29.2955C25.0065 29.0845 25.125 28.7984 25.125 28.5C25.125 28.2016 25.0065 27.9155 24.7955 27.7045C24.5845 27.4935 24.2984 27.375 24 27.375H18Z" fill="#70BBFD"/>
</svg>
