<svg width="48" height="48" viewBox="0 0 48 48" fill="none" xmlns="http://www.w3.org/2000/svg">
<rect width="48" height="48" rx="24" fill="#70BBFD" fill-opacity="0.2"/>
<path d="M27.75 33H17.25C17.1505 33 17.0552 32.9605 16.9848 32.8902C16.9145 32.8198 16.875 32.7245 16.875 32.625C16.875 32.2272 16.717 31.8456 16.4357 31.5643C16.1544 31.283 15.7728 31.125 15.375 31.125C15.2755 31.125 15.1802 31.0855 15.1098 31.0152C15.0395 30.9448 15 30.8495 15 30.75V27C15 26.9005 15.0395 26.8052 15.1098 26.7348C15.1802 26.6645 15.2755 26.625 15.375 26.625C15.7728 26.625 16.1544 26.467 16.4357 26.1857C16.717 25.9044 16.875 25.5228 16.875 25.125C16.875 25.0255 16.9145 24.9302 16.9848 24.8598C17.0552 24.7895 17.1505 24.75 17.25 24.75H27.75C27.8495 24.75 27.9448 24.7895 28.0152 24.8598C28.0855 24.9302 28.125 25.0255 28.125 25.125C28.125 25.5228 28.283 25.9044 28.5643 26.1857C28.8456 26.467 29.2272 26.625 29.625 26.625C29.7245 26.625 29.8198 26.6645 29.8902 26.7348C29.9605 26.8052 30 26.9005 30 27V30.75C30 30.8495 29.9605 30.9448 29.8902 31.0152C29.8198 31.0855 29.7245 31.125 29.625 31.125C29.2272 31.125 28.8456 31.283 28.5643 31.5643C28.283 31.8456 28.125 32.2272 28.125 32.625C28.125 32.7245 28.0855 32.8198 28.0152 32.8902C27.9448 32.9605 27.8495 33 27.75 33ZM17.595 32.25H27.405C27.4827 31.7889 27.7021 31.3634 28.0328 31.0328C28.3634 30.7021 28.7889 30.4827 29.25 30.405V27.345C28.7889 27.2673 28.3634 27.0479 28.0328 26.7172C27.7021 26.3866 27.4827 25.9611 27.405 25.5H17.595C17.5173 25.9611 17.2979 26.3866 16.9672 26.7172C16.6366 27.0479 16.2111 27.2673 15.75 27.345V30.405C16.2111 30.4827 16.6366 30.7021 16.9672 31.0328C17.2979 31.3634 17.5173 31.7889 17.595 32.25V32.25Z" fill="#4291D8"/>
<path d="M22.5 31.875C21.2588 31.875 20.25 30.5287 20.25 28.875C20.25 27.2213 21.2588 25.875 22.5 25.875C23.7412 25.875 24.75 27.2213 24.75 28.875C24.75 30.5287 23.7412 31.875 22.5 31.875ZM22.5 26.625C21.6862 26.625 21 27.6562 21 28.875C21 30.0938 21.6862 31.125 22.5 31.125C23.3138 31.125 24 30.0938 24 28.875C24 27.6562 23.3138 26.625 22.5 26.625Z" fill="#4291D8"/>
<path d="M30.375 34.5H14.625C14.3266 34.5 14.0405 34.3815 13.8295 34.1705C13.6185 33.9595 13.5 33.6734 13.5 33.375V24.375C13.5 24.0766 13.6185 23.7905 13.8295 23.5795C14.0405 23.3685 14.3266 23.25 14.625 23.25H30.375C30.6734 23.25 30.9595 23.3685 31.1705 23.5795C31.3815 23.7905 31.5 24.0766 31.5 24.375V33.375C31.5 33.6734 31.3815 33.9595 31.1705 34.1705C30.9595 34.3815 30.6734 34.5 30.375 34.5ZM14.625 24C14.5255 24 14.4302 24.0395 14.3598 24.1098C14.2895 24.1802 14.25 24.2755 14.25 24.375V33.375C14.25 33.4745 14.2895 33.5698 14.3598 33.6402C14.4302 33.7105 14.5255 33.75 14.625 33.75H30.375C30.4745 33.75 30.5698 33.7105 30.6402 33.6402C30.7105 33.5698 30.75 33.4745 30.75 33.375V24.375C30.75 24.2755 30.7105 24.1802 30.6402 24.1098C30.5698 24.0395 30.4745 24 30.375 24H14.625Z" fill="#4291D8"/>
<path d="M27.75 33H17.25C17.1505 33 17.0552 32.9605 16.9848 32.8902C16.9145 32.8198 16.875 32.7245 16.875 32.625C16.875 32.2272 16.717 31.8456 16.4357 31.5643C16.1544 31.283 15.7728 31.125 15.375 31.125C15.2755 31.125 15.1802 31.0855 15.1098 31.0152C15.0395 30.9448 15 30.8495 15 30.75V27C15 26.9005 15.0395 26.8052 15.1098 26.7348C15.1802 26.6645 15.2755 26.625 15.375 26.625C15.7728 26.625 16.1544 26.467 16.4357 26.1857C16.717 25.9044 16.875 25.5228 16.875 25.125C16.875 25.0255 16.9145 24.9302 16.9848 24.8598C17.0552 24.7895 17.1505 24.75 17.25 24.75H27.75C27.8495 24.75 27.9448 24.7895 28.0152 24.8598C28.0855 24.9302 28.125 25.0255 28.125 25.125C28.125 25.5228 28.283 25.9044 28.5643 26.1857C28.8456 26.467 29.2272 26.625 29.625 26.625C29.7245 26.625 29.8198 26.6645 29.8902 26.7348C29.9605 26.8052 30 26.9005 30 27V30.75C30 30.8495 29.9605 30.9448 29.8902 31.0152C29.8198 31.0855 29.7245 31.125 29.625 31.125C29.2272 31.125 28.8456 31.283 28.5643 31.5643C28.283 31.8456 28.125 32.2272 28.125 32.625C28.125 32.7245 28.0855 32.8198 28.0152 32.8902C27.9448 32.9605 27.8495 33 27.75 33ZM17.595 32.25H27.405C27.4827 31.7889 27.7021 31.3634 28.0328 31.0328C28.3634 30.7021 28.7889 30.4827 29.25 30.405V27.345C28.7889 27.2673 28.3634 27.0479 28.0328 26.7172C27.7021 26.3866 27.4827 25.9611 27.405 25.5H17.595C17.5173 25.9611 17.2979 26.3866 16.9672 26.7172C16.6366 27.0479 16.2111 27.2673 15.75 27.345V30.405C16.2111 30.4827 16.6366 30.7021 16.9672 31.0328C17.2979 31.3634 17.5173 31.7889 17.595 32.25V32.25Z" fill="#4291D8"/>
<path d="M22.5 31.875C21.2588 31.875 20.25 30.5287 20.25 28.875C20.25 27.2213 21.2588 25.875 22.5 25.875C23.7412 25.875 24.75 27.2213 24.75 28.875C24.75 30.5287 23.7412 31.875 22.5 31.875ZM22.5 26.625C21.6862 26.625 21 27.6562 21 28.875C21 30.0938 21.6862 31.125 22.5 31.125C23.3138 31.125 24 30.0938 24 28.875C24 27.6562 23.3138 26.625 22.5 26.625Z" fill="#4291D8"/>
<path d="M31.125 30.1349C31.0926 30.1386 31.0599 30.1386 31.0275 30.1349C30.9457 30.113 30.8737 30.0639 30.8233 29.9958C30.773 29.9277 30.7471 29.8446 30.75 29.7599V24.3749C30.75 24.2755 30.7105 24.1801 30.6402 24.1098C30.5698 24.0394 30.4745 23.9999 30.375 23.9999H27.8775C27.8119 23.9994 27.7475 23.9826 27.69 23.9512L21.0638 20.1262C21.0156 20.1852 20.9643 20.2415 20.91 20.2949C20.8425 20.3549 20.79 20.4037 20.73 20.4487L20.6625 20.4974L20.49 20.6174C20.2005 20.7913 19.8755 20.8977 19.5393 20.9289C19.203 20.9601 18.864 20.9151 18.5475 20.7974L16.98 23.5162C17.0015 23.5871 17.0015 23.6628 16.98 23.7337C16.9559 23.8134 16.906 23.8828 16.8381 23.931C16.7702 23.9792 16.6882 24.0035 16.605 23.9999H14.73C14.6639 24.0002 14.599 23.983 14.5417 23.9501C14.4844 23.9171 14.4368 23.8697 14.4038 23.8124C14.3708 23.7554 14.3535 23.6908 14.3535 23.6249C14.3535 23.5591 14.3708 23.4944 14.4038 23.4374L18.06 17.1037C18.1341 16.9754 18.2329 16.863 18.3505 16.773C18.4682 16.683 18.6025 16.6171 18.7457 16.5791C18.8889 16.5411 19.0382 16.5318 19.185 16.5517C19.3319 16.5716 19.4733 16.6202 19.6013 16.6949L21.2513 17.6249L33.2513 24.5549C33.3794 24.6287 33.4916 24.7271 33.5817 24.8443C33.6718 24.9615 33.7379 25.0954 33.7762 25.2382C33.8145 25.381 33.8243 25.5299 33.805 25.6765C33.7857 25.8231 33.7377 25.9644 33.6638 26.0924L31.4513 29.9474C31.4182 30.0047 31.3706 30.0521 31.3133 30.0851C31.2561 30.118 31.1911 30.1352 31.125 30.1349V30.1349ZM31.5 24.4199V28.3612L33 25.7362C33.0492 25.6505 33.0626 25.5489 33.0374 25.4534C33.0121 25.3579 32.9501 25.2763 32.865 25.2262L31.5 24.4199ZM27.9788 23.2499H29.4788L19.2413 17.3437C19.1566 17.2936 19.0555 17.2787 18.96 17.3024C18.9121 17.3152 18.8672 17.3374 18.828 17.3677C18.7887 17.3979 18.7558 17.4356 18.7313 17.4787L15.3975 23.2499H16.2638L18.0675 20.1262C18.092 20.0832 18.1248 20.0455 18.1639 20.0153C18.203 19.985 18.2478 19.9628 18.2955 19.9499C18.3433 19.937 18.3931 19.9337 18.4421 19.9401C18.4912 19.9466 18.5385 19.9626 18.5813 19.9874C18.8115 20.1226 19.0736 20.1938 19.3406 20.1938C19.6076 20.1938 19.8698 20.1226 20.1 19.9874C20.1488 19.9612 20.1938 19.9274 20.2388 19.8974L20.265 19.8749C20.3074 19.8442 20.3475 19.8103 20.385 19.7737C20.4312 19.7282 20.4738 19.6794 20.5125 19.6274C20.5542 19.5732 20.593 19.5169 20.6288 19.4587C20.6782 19.3729 20.7596 19.3102 20.8552 19.2842C20.9507 19.2582 21.0526 19.271 21.1388 19.3199L27.9788 23.2499Z" fill="#70BBFD"/>
<path d="M27.8774 24.0002H16.6274C16.5526 24.0003 16.4795 23.9781 16.4174 23.9364L16.3461 23.8877C16.3028 23.8639 16.2646 23.8318 16.2337 23.7931C16.2028 23.7545 16.1798 23.7102 16.1661 23.6627C16.1523 23.6147 16.1481 23.5645 16.1539 23.5149C16.1597 23.4653 16.1753 23.4174 16.1999 23.3739L18.0749 20.1264C18.0994 20.0834 18.1322 20.0458 18.1713 20.0155C18.2104 19.9852 18.2551 19.963 18.3029 19.9501C18.3506 19.9372 18.4005 19.9339 18.4495 19.9403C18.4986 19.9468 18.5458 19.9629 18.5886 19.9877C18.8189 20.1228 19.081 20.1941 19.348 20.1941C19.615 20.1941 19.8772 20.1228 20.1074 19.9877C20.3254 19.8543 20.504 19.6654 20.6249 19.4402C20.6494 19.3972 20.6822 19.3595 20.7213 19.3292C20.7604 19.299 20.8051 19.2768 20.8529 19.2639C20.9006 19.251 20.9505 19.2477 20.9995 19.2541C21.0486 19.2605 21.0958 19.2766 21.1386 19.3014L28.0649 23.2989C28.1371 23.3401 28.1935 23.404 28.2254 23.4807C28.2573 23.5574 28.2628 23.6425 28.2411 23.7227C28.2196 23.8026 28.1723 23.8731 28.1065 23.9233C28.0407 23.9735 27.9602 24.0005 27.8774 24.0002V24.0002ZM17.1299 23.2502H26.4786L21.0636 20.1227C20.9027 20.3233 20.7071 20.4935 20.4861 20.6252C20.1971 20.7985 19.8728 20.9046 19.5373 20.9357C19.2017 20.9669 18.8634 20.9223 18.5474 20.8052L17.1299 23.2502ZM31.9011 24.5927C31.8355 24.5931 31.7708 24.5763 31.7136 24.5439L29.1224 23.0439C29.0656 23.0096 29.0179 22.962 28.9836 22.9052L25.9836 17.6852C25.546 17.8476 25.0687 17.8698 24.6179 17.7489C24.1671 17.628 23.765 17.3698 23.4674 17.0102L21.2661 18.2852C21.2091 18.3181 21.1445 18.3354 21.0786 18.3354C21.0128 18.3354 20.9482 18.3181 20.8911 18.2852L19.3911 17.4152C19.3334 17.3825 19.2854 17.335 19.252 17.2777C19.2186 17.2204 19.201 17.1553 19.201 17.0889C19.201 17.0226 19.2186 16.9574 19.252 16.9001C19.2854 16.8428 19.3334 16.7954 19.3911 16.7627L24.9149 13.5752C25.0429 13.5012 25.1843 13.4532 25.3308 13.4339C25.4774 13.4146 25.6264 13.4244 25.7691 13.4627C25.9119 13.5011 26.0458 13.5671 26.163 13.6572C26.2803 13.7473 26.3786 13.8596 26.4524 13.9877L32.2274 24.0302C32.2689 24.1018 32.2855 24.1852 32.2747 24.2673C32.2638 24.3493 32.2261 24.4255 32.1674 24.4839C32.1324 24.5187 32.0908 24.5462 32.0451 24.5648C31.9994 24.5835 31.9505 24.593 31.9011 24.5927ZM29.5836 22.4477L30.8774 23.1977L25.7811 14.3664C25.728 14.2844 25.645 14.2264 25.5498 14.2047C25.4545 14.183 25.3546 14.1993 25.2711 14.2502L20.3099 17.0927L21.0599 17.5277L23.3699 16.1927C23.4126 16.168 23.4598 16.152 23.5087 16.1455C23.5576 16.1391 23.6073 16.1424 23.6549 16.1552C23.7505 16.1832 23.8322 16.2461 23.8836 16.3314C23.9826 16.5019 24.1141 16.6511 24.2708 16.7707C24.4274 16.8903 24.6061 16.9778 24.7966 17.0283C24.9871 17.0788 25.1857 17.0913 25.381 17.065C25.5763 17.0387 25.7645 16.9742 25.9349 16.8752C25.9777 16.8504 26.025 16.8343 26.074 16.8278C26.1231 16.8214 26.1729 16.8247 26.2206 16.8376C26.2684 16.8505 26.3131 16.8727 26.3523 16.903C26.3914 16.9333 26.4241 16.971 26.4486 17.0139L29.5836 22.4477ZM31.1249 30.7127C31.0254 30.7127 30.9301 30.6732 30.8597 30.6028C30.7894 30.5325 30.7499 30.4371 30.7499 30.3377V29.7602C30.7504 29.6946 30.7672 29.6302 30.7986 29.5727L32.7861 26.1302C32.8192 26.0729 32.8668 26.0255 32.9241 25.9925C32.9813 25.9596 33.0463 25.9424 33.1124 25.9427C33.1785 25.9424 33.2435 25.9596 33.3007 25.9925C33.358 26.0255 33.4056 26.0729 33.4386 26.1302L34.3086 27.6302C34.3826 27.7582 34.4306 27.8995 34.4499 28.0461C34.4692 28.1927 34.4594 28.3416 34.4211 28.4844C34.3828 28.6272 34.3167 28.7611 34.2266 28.8783C34.1365 28.9955 34.0242 29.0939 33.8961 29.1677L31.3124 30.6677C31.2544 30.6974 31.1901 30.7128 31.1249 30.7127V30.7127ZM33.1124 27.0677L31.6499 29.6027L33.5249 28.5189C33.6097 28.4695 33.6717 28.3888 33.6976 28.2941C33.7236 28.1995 33.7114 28.0984 33.6636 28.0127L33.1124 27.0677Z" fill="#70BBFD"/>
<path d="M29.31 23.0962C29.2443 23.0966 29.1796 23.0798 29.1225 23.0474L20.8725 18.2887C20.8148 18.256 20.7668 18.2085 20.7334 18.1512C20.7 18.0939 20.6824 18.0288 20.6824 17.9624C20.6824 17.8961 20.7 17.831 20.7334 17.7736C20.7668 17.7163 20.8148 17.6689 20.8725 17.6362L23.37 16.1924C23.4127 16.1677 23.4598 16.1517 23.5087 16.1453C23.5576 16.1389 23.6073 16.1421 23.655 16.1549C23.7506 16.1829 23.8323 16.2458 23.8837 16.3312C23.9827 16.5016 24.1142 16.6509 24.2709 16.7705C24.4275 16.8901 24.6062 16.9776 24.7967 17.0281C24.9872 17.0786 25.1858 17.0911 25.3811 17.0648C25.5764 17.0385 25.7646 16.974 25.935 16.8749C25.9778 16.8501 26.0251 16.8341 26.0741 16.8276C26.1231 16.8212 26.173 16.8245 26.2207 16.8374C26.2685 16.8503 26.3132 16.8725 26.3523 16.9028C26.3915 16.933 26.4242 16.9707 26.4487 17.0137L29.625 22.5337C29.6665 22.6053 29.6831 22.6887 29.6722 22.7708C29.6614 22.8529 29.6237 22.929 29.565 22.9874C29.497 23.0549 29.4058 23.0938 29.31 23.0962V23.0962ZM21.81 17.9624L28.2825 21.7124L25.9687 17.6887C25.5311 17.8511 25.0538 17.8734 24.603 17.7524C24.1521 17.6315 23.7501 17.3733 23.4525 17.0137L21.81 17.9624Z" fill="#70BBFD"/>
</svg>
