<svg width="48" height="48" viewBox="0 0 48 48" fill="none" xmlns="http://www.w3.org/2000/svg">
<rect width="48" height="48" rx="24" fill="#70BBFD" fill-opacity="0.2"/>
<path d="M22.875 35.625C22.7821 35.6248 22.6925 35.59 22.6237 35.5275C22.2975 35.25 14.625 28.2037 14.625 20.625C14.625 18.437 15.4942 16.3385 17.0414 14.7914C18.5885 13.2442 20.687 12.375 22.875 12.375C23.259 12.3754 23.6424 12.403 24.0225 12.4575H24.0525C26.014 12.7466 27.8065 13.73 29.1044 15.2288C30.4023 16.7276 31.1193 18.6424 31.125 20.625C31.125 26.535 26.3325 32.22 24.2738 34.3913C23.5912 35.1075 23.1488 35.5163 23.1263 35.5163C23.0592 35.5829 22.9695 35.6217 22.875 35.625ZM22.875 13.125C21.8901 13.125 20.9148 13.319 20.0049 13.6959C19.0949 14.0728 18.2681 14.6253 17.5717 15.3217C16.1652 16.7282 15.375 18.6359 15.375 20.625C15.375 27.1237 21.5437 33.4463 22.875 34.7362C23.07 34.5487 23.3663 34.2563 23.7262 33.8738C25.725 31.77 30.375 26.25 30.375 20.625C30.3691 18.8275 29.72 17.0914 28.5452 15.7309C27.3704 14.3704 25.7475 13.4753 23.97 13.2075H23.9325C23.5826 13.153 23.2291 13.1254 22.875 13.125Z" fill="#4291D8"/>
<path d="M25.125 24.375H20.625C20.2272 24.375 19.8456 24.217 19.5643 23.9357C19.283 23.6544 19.125 23.2728 19.125 22.875V19.875C19.125 19.4772 19.283 19.0956 19.5643 18.8143C19.8456 18.533 20.2272 18.375 20.625 18.375H25.125C25.5228 18.375 25.9044 18.533 26.1857 18.8143C26.467 19.0956 26.625 19.4772 26.625 19.875V22.875C26.625 23.2728 26.467 23.6544 26.1857 23.9357C25.9044 24.217 25.5228 24.375 25.125 24.375ZM20.625 19.125C20.4261 19.125 20.2353 19.204 20.0947 19.3447C19.954 19.4853 19.875 19.6761 19.875 19.875V22.875C19.875 23.0739 19.954 23.2647 20.0947 23.4053C20.2353 23.546 20.4261 23.625 20.625 23.625H25.125C25.3239 23.625 25.5147 23.546 25.6553 23.4053C25.796 23.2647 25.875 23.0739 25.875 22.875V19.875C25.875 19.6761 25.796 19.4853 25.6553 19.3447C25.5147 19.204 25.3239 19.125 25.125 19.125H20.625Z" fill="#4291D8"/>
<path d="M25.125 21.75H20.625C20.2272 21.75 19.8456 21.592 19.5643 21.3107C19.283 21.0294 19.125 20.6478 19.125 20.25V19.875C19.125 19.4772 19.283 19.0956 19.5643 18.8143C19.8456 18.533 20.2272 18.375 20.625 18.375H25.125C25.5228 18.375 25.9044 18.533 26.1857 18.8143C26.467 19.0956 26.625 19.4772 26.625 19.875V20.25C26.625 20.6478 26.467 21.0294 26.1857 21.3107C25.9044 21.592 25.5228 21.75 25.125 21.75ZM20.625 19.125C20.4261 19.125 20.2353 19.204 20.0947 19.3447C19.954 19.4853 19.875 19.6761 19.875 19.875V20.25C19.875 20.4489 19.954 20.6397 20.0947 20.7803C20.2353 20.921 20.4261 21 20.625 21H25.125C25.3239 21 25.5147 20.921 25.6553 20.7803C25.796 20.6397 25.875 20.4489 25.875 20.25V19.875C25.875 19.6761 25.796 19.4853 25.6553 19.3447C25.5147 19.204 25.3239 19.125 25.125 19.125H20.625Z" fill="#4291D8"/>
<path d="M24 19.125H21.75C21.6505 19.125 21.5552 19.0855 21.4848 19.0152C21.4145 18.9448 21.375 18.8495 21.375 18.75V18.375C21.375 18.0766 21.4935 17.7905 21.7045 17.5795C21.9155 17.3685 22.2016 17.25 22.5 17.25H23.25C23.5484 17.25 23.8345 17.3685 24.0455 17.5795C24.2565 17.7905 24.375 18.0766 24.375 18.375V18.75C24.375 18.8495 24.3355 18.9448 24.2652 19.0152C24.1948 19.0855 24.0995 19.125 24 19.125ZM22.125 18.375H23.625C23.625 18.2755 23.5855 18.1802 23.5152 18.1098C23.4448 18.0395 23.3495 18 23.25 18H22.5C22.4005 18 22.3052 18.0395 22.2348 18.1098C22.1645 18.1802 22.125 18.2755 22.125 18.375Z" fill="#4291D8"/>
<path d="M22.875 26.625C21.7625 26.625 20.6749 26.2951 19.7499 25.677C18.8249 25.0589 18.1039 24.1804 17.6782 23.1526C17.2524 22.1248 17.141 20.9938 17.3581 19.9026C17.5751 18.8115 18.1109 17.8092 18.8975 17.0225C19.6842 16.2359 20.6865 15.7001 21.7776 15.4831C22.8688 15.266 23.9998 15.3774 25.0276 15.8032C26.0554 16.2289 26.9339 16.9499 27.552 17.8749C28.1701 18.7999 28.5 19.8875 28.5 21C28.5 22.4918 27.9074 23.9226 26.8525 24.9775C25.7976 26.0324 24.3668 26.625 22.875 26.625ZM22.875 16.125C21.9108 16.125 20.9683 16.4109 20.1666 16.9466C19.3649 17.4823 18.7401 18.2436 18.3711 19.1344C18.0021 20.0252 17.9056 21.0054 18.0937 21.9511C18.2818 22.8967 18.7461 23.7654 19.4279 24.4471C20.1096 25.1289 20.9783 25.5932 21.9239 25.7813C22.8696 25.9694 23.8498 25.8729 24.7406 25.5039C25.6314 25.1349 26.3927 24.5101 26.9284 23.7084C27.4641 22.9067 27.75 21.9642 27.75 21C27.75 19.7071 27.2364 18.4671 26.3221 17.5529C25.4079 16.6386 24.1679 16.125 22.875 16.125Z" fill="#4291D8"/>
<path d="M25.125 35.625H22.875C22.7994 35.6248 22.7256 35.6018 22.6633 35.5589C22.6011 35.516 22.5532 35.4553 22.526 35.3848C22.4989 35.3142 22.4936 35.2371 22.5111 35.1635C22.5285 35.0899 22.5678 35.0234 22.6237 34.9725C22.6237 34.9725 23.07 34.5675 23.7263 33.8738C25.725 31.77 30.375 26.25 30.375 20.625C30.3691 18.8275 29.72 17.0914 28.5452 15.7309C27.3704 14.3704 25.7475 13.4753 23.97 13.2075H23.9325C23.5826 13.153 23.2291 13.1254 22.875 13.125C22.7755 13.125 22.6802 13.0855 22.6098 13.0152C22.5395 12.9448 22.5 12.8495 22.5 12.75C22.5 12.6505 22.5395 12.5552 22.6098 12.4848C22.6802 12.4145 22.7755 12.375 22.875 12.375H25.125C25.5203 12.3748 25.9151 12.4036 26.3063 12.4613C28.2664 12.7511 30.0576 13.7343 31.3546 15.2322C32.6516 16.7302 33.3685 18.6436 33.375 20.625C33.375 26.535 28.5825 32.22 26.5237 34.3913C25.8412 35.1075 25.3987 35.5163 25.3762 35.5163C25.3092 35.5829 25.2195 35.6217 25.125 35.625ZM23.8012 34.875H24.9788C25.1475 34.7175 25.5075 34.3725 25.9763 33.8738C27.975 31.77 32.625 26.25 32.625 20.625C32.619 18.8977 32.0197 17.2249 30.9274 15.8868C29.8351 14.5487 28.3161 13.6266 26.625 13.275C27.9764 13.9703 29.1109 15.0236 29.9044 16.3197C30.698 17.6159 31.1202 19.1052 31.125 20.625C31.125 26.535 26.3325 32.22 24.2737 34.3913L23.8012 34.875Z" fill="#70BBFD"/>
<path d="M22.875 35.625C22.7821 35.6248 22.6925 35.59 22.6237 35.5275C22.2975 35.25 14.625 28.2037 14.625 20.625C14.625 18.437 15.4942 16.3385 17.0414 14.7914C18.5885 13.2442 20.687 12.375 22.875 12.375C23.259 12.3754 23.6424 12.403 24.0225 12.4575H24.0525C26.014 12.7466 27.8065 13.73 29.1044 15.2288C30.4023 16.7276 31.1193 18.6424 31.125 20.625C31.125 26.535 26.3325 32.22 24.2738 34.3913C23.5912 35.1075 23.1488 35.5163 23.1263 35.5163C23.0592 35.5829 22.9695 35.6217 22.875 35.625ZM22.875 13.125C21.8901 13.125 20.9148 13.319 20.0049 13.6959C19.0949 14.0728 18.2681 14.6253 17.5717 15.3217C16.1652 16.7282 15.375 18.6359 15.375 20.625C15.375 27.1237 21.5437 33.4463 22.875 34.7362C23.07 34.5487 23.3663 34.2563 23.7262 33.8738C25.725 31.77 30.375 26.25 30.375 20.625C30.3691 18.8275 29.72 17.0914 28.5452 15.7309C27.3704 14.3704 25.7475 13.4753 23.97 13.2075H23.9325C23.5826 13.153 23.2291 13.1254 22.875 13.125Z" fill="#70BBFD"/>
</svg>
