<svg width="48" height="48" viewBox="0 0 48 48" fill="none" xmlns="http://www.w3.org/2000/svg">
<rect width="48" height="48" rx="24" fill="#70BBFD" fill-opacity="0.2"/>
<path d="M16.5001 34.5001H13.8751C13.82 34.5002 13.7655 34.4882 13.7156 34.4648C13.6657 34.4415 13.6216 34.4075 13.5863 34.3651C13.5502 34.3234 13.5237 34.2742 13.5088 34.221C13.4939 34.1679 13.4909 34.1121 13.5001 34.0576L17.0626 14.8614C17.1362 14.4511 17.3611 14.0834 17.6928 13.831C18.0244 13.5785 18.4387 13.4596 18.8538 13.4977C19.2688 13.5359 19.6545 13.7283 19.9345 14.0371C20.2146 14.3458 20.3687 14.7483 20.3663 15.1651C20.3663 15.2544 20.3587 15.3434 20.3438 15.4314C20.3456 15.4388 20.3456 15.4465 20.3438 15.4539L16.8751 34.1926C16.8591 34.28 16.8126 34.3588 16.744 34.4152C16.6753 34.4715 16.5889 34.5016 16.5001 34.5001ZM14.3251 33.7501H16.2001L19.5976 15.3414V15.3151C19.6014 15.2652 19.6014 15.2151 19.5976 15.1651C19.5784 14.951 19.4847 14.7503 19.3328 14.5982C19.1809 14.446 18.9805 14.3519 18.7663 14.3322C18.5522 14.3126 18.338 14.3687 18.161 14.4907C17.984 14.6128 17.8554 14.793 17.7976 15.0001L14.3251 33.7501Z" fill="#4291D8"/>
<path d="M27.3749 24C27.2755 24 27.1801 23.9605 27.1098 23.8902C27.0394 23.8199 26.9999 23.7245 26.9999 23.625C26.9999 23.5256 26.9604 23.4302 26.8901 23.3599C26.8198 23.2896 26.7244 23.25 26.6249 23.25H18.5849C18.5298 23.2501 18.4754 23.2381 18.4255 23.2148C18.3756 23.1914 18.3314 23.1574 18.2962 23.115C18.2614 23.0727 18.2363 23.0232 18.2227 22.97C18.2091 22.9169 18.2073 22.8614 18.2174 22.8075L19.5974 15.3413C19.6085 15.2498 19.6528 15.1656 19.722 15.1048C19.7911 15.0439 19.8803 15.0106 19.9724 15.0113H27.6299C27.793 15.0095 27.9545 15.0431 28.1033 15.1099C28.2521 15.1766 28.3846 15.275 28.4916 15.398C28.5986 15.5211 28.6776 15.666 28.7231 15.8226C28.7685 15.9792 28.7794 16.1438 28.7549 16.3051L27.7499 22.905V23.625C27.7499 23.7245 27.7104 23.8199 27.6401 23.8902C27.5698 23.9605 27.4744 24 27.3749 24ZM19.0349 22.5H26.6249C26.7673 22.5012 26.9083 22.5278 27.0412 22.5788L28.0012 16.1813C28.0092 16.128 28.0056 16.0737 27.9908 16.0219C27.9759 15.9701 27.95 15.9222 27.9149 15.8813C27.8797 15.8401 27.836 15.8071 27.7868 15.7844C27.7376 15.7618 27.6841 15.75 27.6299 15.7501H20.2837L19.0349 22.5Z" fill="#4291D8"/>
<path d="M33.0002 26.25H23.2502C23.0338 26.2496 22.8221 26.1867 22.6405 26.069C22.4589 25.9513 22.3152 25.7837 22.2264 25.5863C22.1573 25.4425 22.1227 25.2846 22.1252 25.125C22.1233 25.1051 22.1233 25.085 22.1252 25.065L22.1627 24.8325C22.1692 24.8031 22.178 24.7743 22.1889 24.7463C22.235 24.6061 22.3119 24.4779 22.4139 24.3713L22.4514 24.33C22.5553 24.2239 22.6797 24.1399 22.817 24.0832C22.9543 24.0265 23.1016 23.9982 23.2502 24H26.6252C26.6735 24.0008 26.7214 23.9915 26.766 23.9728C26.8105 23.9541 26.8507 23.9263 26.8839 23.8913C26.92 23.8569 26.9489 23.8156 26.9689 23.7699C26.9888 23.7241 26.9995 23.6749 27.0002 23.625V22.875C26.9983 22.8563 26.9983 22.8375 27.0002 22.8188L27.6752 18.3188C27.6887 18.2294 27.7342 18.1478 27.8031 18.0893C27.872 18.0307 27.9597 17.999 28.0502 18H34.1252C34.1961 17.9998 34.2657 18.0197 34.3258 18.0574C34.3859 18.0951 34.4341 18.1491 34.4647 18.2132C34.4953 18.2772 34.5072 18.3486 34.4989 18.419C34.4905 18.4895 34.4624 18.5562 34.4177 18.6113L31.5677 22.1738L33.3339 25.7063C33.3627 25.7634 33.3764 25.8269 33.3737 25.8907C33.371 25.9546 33.3521 26.0167 33.3186 26.0712C33.2852 26.1257 33.2384 26.1707 33.1826 26.202C33.1269 26.2333 33.0641 26.2498 33.0002 26.25ZM22.8752 25.1513C22.8794 25.1925 22.8895 25.2329 22.9052 25.2713C22.9339 25.3391 22.9819 25.3969 23.0433 25.4376C23.1046 25.4782 23.1766 25.5 23.2502 25.5H32.3927L30.7914 22.2938C30.7594 22.2299 30.7462 22.1582 30.7535 22.0871C30.7608 22.016 30.7883 21.9485 30.8327 21.8925L33.3452 18.75H28.3727L27.7502 22.905V23.625C27.7502 23.9234 27.6316 24.2095 27.4207 24.4205C27.2097 24.6315 26.9235 24.75 26.6252 24.75H23.2502C23.2019 24.7492 23.1539 24.7585 23.1094 24.7772C23.0648 24.7959 23.0247 24.8237 22.9914 24.8588L22.9539 24.9C22.931 24.9265 22.9132 24.9571 22.9014 24.99L22.8752 25.1513Z" fill="#4291D8"/>
<path d="M22.5 25.5H22.47C22.3758 25.4925 22.288 25.4497 22.224 25.3801C22.16 25.3106 22.1247 25.2195 22.125 25.125C22.1211 24.9974 22.1414 24.8701 22.185 24.75C22.2158 24.6609 22.2791 24.5867 22.3622 24.5421C22.4453 24.4975 22.5422 24.4859 22.6335 24.5095C22.7248 24.5332 22.8038 24.5904 22.8548 24.6697C22.9058 24.749 22.9251 24.8447 22.9087 24.9375L22.8712 25.17C22.8603 25.2609 22.8165 25.3445 22.7481 25.4053C22.6797 25.4661 22.5915 25.4998 22.5 25.5Z" fill="#4291D8"/>
<path d="M22.5411 25.26C22.5125 25.2639 22.4835 25.2639 22.4549 25.26C22.3626 25.2385 22.282 25.1828 22.2291 25.1042C22.1762 25.0256 22.1551 24.9299 22.1699 24.8363L22.4999 22.815C22.5143 22.7263 22.56 22.6457 22.6289 22.5879C22.6977 22.53 22.785 22.4989 22.8749 22.5H26.6249C26.9233 22.5 27.2094 22.6186 27.4204 22.8295C27.6314 23.0405 27.7499 23.3267 27.7499 23.625C27.7499 23.9234 27.6314 24.2095 27.4204 24.4205C27.2094 24.6315 26.9233 24.75 26.6249 24.75H23.2499C23.2016 24.7492 23.1536 24.7585 23.1091 24.7772C23.0645 24.7959 23.0244 24.8237 22.9911 24.8588L22.9536 24.9C22.9266 24.9285 22.9073 24.9633 22.8974 25.0013C22.8729 25.0765 22.8252 25.142 22.7612 25.1884C22.6973 25.2349 22.6202 25.26 22.5411 25.26ZM23.1936 23.25L23.0661 24C23.1273 23.9943 23.1888 23.9943 23.2499 24H26.6249C26.6732 24.0008 26.7211 23.9916 26.7657 23.9728C26.8102 23.9541 26.8504 23.9263 26.8836 23.8913C26.9197 23.8569 26.9486 23.8156 26.9686 23.7699C26.9886 23.7242 26.9992 23.6749 26.9999 23.625C26.9999 23.5256 26.9604 23.4302 26.8901 23.3599C26.8197 23.2895 26.7243 23.25 26.6249 23.25H23.1936Z" fill="#4291D8"/>
</svg>
