<svg width="48" height="48" viewBox="0 0 48 48" fill="none" xmlns="http://www.w3.org/2000/svg">
<rect width="48" height="48" rx="24" fill="#70BBFD" fill-opacity="0.2"/>
<path d="M35.25 18.375H31.5C31.4005 18.375 31.3052 18.3355 31.2348 18.2652C31.1645 18.1948 31.125 18.0995 31.125 18V16.875C31.125 16.2783 31.3621 15.706 31.784 15.284C32.206 14.8621 32.7783 14.625 33.375 14.625C33.9717 14.625 34.544 14.8621 34.966 15.284C35.3879 15.706 35.625 16.2783 35.625 16.875V18C35.625 18.0995 35.5855 18.1948 35.5152 18.2652C35.4448 18.3355 35.3495 18.375 35.25 18.375ZM31.875 17.625H34.875V16.875C34.875 16.4772 34.717 16.0956 34.4357 15.8143C34.1544 15.533 33.7728 15.375 33.375 15.375C32.9772 15.375 32.5956 15.533 32.3143 15.8143C32.033 16.0956 31.875 16.4772 31.875 16.875V17.625ZM29.25 33.375H15C14.4033 33.375 13.831 33.1379 13.409 32.716C12.9871 32.294 12.75 31.7217 12.75 31.125V30C12.75 29.9005 12.7895 29.8052 12.8598 29.7348C12.9302 29.6645 13.0255 29.625 13.125 29.625H27.75C27.8495 29.625 27.9448 29.6645 28.0152 29.7348C28.0855 29.8052 28.125 29.9005 28.125 30V31.125C28.1244 31.3227 28.1628 31.5185 28.2381 31.7013C28.3134 31.8841 28.4241 32.0501 28.5637 32.19C28.7693 32.3947 29.0298 32.5354 29.3137 32.595C29.3997 32.6125 29.4768 32.6597 29.5317 32.7282C29.5865 32.7967 29.6155 32.8823 29.6138 32.97V33C29.6138 33.0975 29.5758 33.1913 29.5079 33.2613C29.44 33.3313 29.3475 33.3721 29.25 33.375ZM13.5 30.375V31.125C13.5 31.5228 13.658 31.9044 13.9393 32.1857C14.2206 32.467 14.6022 32.625 15 32.625H27.945C27.5771 32.212 27.3742 31.6781 27.375 31.125V30.375H13.5ZM27 27.375C26.2249 27.3743 25.469 27.1334 24.8365 26.6855C24.2039 26.2376 23.7256 25.6046 23.4675 24.8738C23.3214 24.4737 23.2478 24.0509 23.25 23.625C23.25 22.6304 23.6451 21.6766 24.3483 20.9733C25.0516 20.2701 26.0054 19.875 27 19.875C27.3736 19.8757 27.7451 19.9313 28.1025 20.04L28.2375 20.0887H28.26L28.4175 20.1487C28.4567 20.1608 28.4944 20.1771 28.53 20.1975C28.5724 20.2137 28.6137 20.2325 28.6537 20.2537L28.8563 20.3588C28.9237 20.3963 29.0025 20.4488 29.0812 20.4975C29.5941 20.8401 30.0145 21.3039 30.3052 21.8478C30.5959 22.3917 30.748 22.9989 30.748 23.6156C30.748 24.2324 30.5959 24.8396 30.3052 25.3835C30.0145 25.9273 29.5941 26.3911 29.0812 26.7338C29.0043 26.7874 28.9242 26.8362 28.8412 26.88C28.785 26.9137 28.7212 26.9475 28.6575 26.9775C28.609 27.0031 28.5589 27.0256 28.5075 27.045C28.4782 27.0628 28.4467 27.0766 28.4137 27.0863L28.2712 27.1425H28.2188L28.11 27.18C27.7521 27.3012 27.3778 27.367 27 27.375ZM27 20.625C26.2044 20.625 25.4413 20.9411 24.8787 21.5037C24.3161 22.0663 24 22.8294 24 23.625C23.9984 23.9651 24.0568 24.3027 24.1725 24.6225C24.3788 25.2077 24.7615 25.7146 25.2679 26.0732C25.7743 26.4318 26.3795 26.6246 27 26.625C27.2977 26.6251 27.5936 26.5796 27.8775 26.49L27.9938 26.4525L28.1287 26.4H28.185L28.2262 26.3775L28.3013 26.34L28.35 26.3175C28.402 26.2997 28.4522 26.2771 28.5 26.25C28.5712 26.2125 28.6275 26.175 28.6875 26.1375C29.0974 25.8634 29.4335 25.4924 29.6658 25.0574C29.8982 24.6224 30.0198 24.1369 30.0198 23.6437C30.0198 23.1506 29.8982 22.665 29.6658 22.2301C29.4335 21.7951 29.0974 21.4241 28.6875 21.15C28.6313 21.1125 28.575 21.075 28.5187 21.045C28.4765 21.0186 28.4327 20.9948 28.3875 20.9738L28.3387 20.9513L28.2638 20.9138L28.2113 20.8912C28.1956 20.8866 28.1805 20.8803 28.1663 20.8725L28.0312 20.8238L27.915 20.7825C27.6199 20.6834 27.3113 20.6302 27 20.625ZM31.5 27C31.4506 27.0003 31.4017 26.9908 31.356 26.9722C31.3103 26.9535 31.2688 26.926 31.2337 26.8912L30.8587 26.5162C30.7983 26.4555 30.7604 26.3758 30.7515 26.2905C30.7427 26.2052 30.7633 26.1194 30.81 26.0475C30.9494 25.832 31.0675 25.6034 31.1625 25.365C31.1982 25.2903 31.2575 25.2295 31.3314 25.192C31.4052 25.1546 31.4894 25.1427 31.5707 25.1581C31.6521 25.1735 31.7261 25.2154 31.7811 25.2772C31.8361 25.3391 31.8691 25.4174 31.875 25.5V26.625C31.8746 26.699 31.8524 26.7713 31.811 26.8327C31.7696 26.8941 31.711 26.9419 31.6425 26.97C31.598 26.991 31.5492 27.0013 31.5 27Z" fill="#4291D8"/>
<path d="M29.625 33.375C29.4726 33.376 29.3205 33.3609 29.1713 33.33C28.6637 33.2255 28.2078 32.949 27.8806 32.5473C27.5533 32.1456 27.3747 31.6432 27.375 31.125V30.375H16.875C16.7755 30.375 16.6802 30.3355 16.6098 30.2652C16.5395 30.1948 16.5 30.0995 16.5 30V16.875C16.5 16.2783 16.7371 15.706 17.159 15.284C17.581 14.8621 18.1533 14.625 18.75 14.625H33.375C33.4745 14.625 33.5698 14.6645 33.6402 14.7348C33.7105 14.8052 33.75 14.9005 33.75 15C33.75 15.0995 33.7105 15.1948 33.6402 15.2652C33.5698 15.3355 33.4745 15.375 33.375 15.375C32.9772 15.375 32.5956 15.533 32.3143 15.8143C32.033 16.0956 31.875 16.4772 31.875 16.875V21.75C31.874 21.8361 31.8434 21.9191 31.7884 21.9853C31.7334 22.0515 31.6573 22.0967 31.5728 22.1135C31.4884 22.1302 31.4008 22.1173 31.3247 22.0771C31.2486 22.0369 31.1887 21.9717 31.155 21.8925C30.6941 20.8001 29.8249 19.9309 28.7325 19.47L28.5675 19.4063L28.3237 19.3238C28.2337 19.2938 28.1363 19.2713 28.0387 19.245C27.9412 19.2188 27.78 19.1925 27.645 19.1737L27.4688 19.1513H27.2475L27 19.125C25.8065 19.1553 24.674 19.6585 23.8515 20.5239C23.0291 21.3893 22.584 22.5459 22.6144 23.7394C22.6447 24.9328 23.1479 26.0654 24.0133 26.8879C24.8786 27.7103 26.0353 28.1553 27.2288 28.125H27.4387C27.503 28.1204 27.5669 28.1117 27.63 28.0988C27.7674 28.0821 27.9038 28.0583 28.0387 28.0275C28.1813 27.99 28.32 27.9525 28.4587 27.9075H28.5037L28.5675 27.885L28.725 27.8213C28.9767 27.7202 29.2179 27.5946 29.445 27.4463C29.5169 27.3981 29.6032 27.3763 29.6893 27.3845C29.7754 27.3927 29.856 27.4304 29.9175 27.4913L31.7662 29.34C31.801 29.375 31.8285 29.4166 31.8472 29.4623C31.8658 29.508 31.8753 29.5569 31.875 29.6063V31.125C31.875 31.7217 31.6379 32.294 31.216 32.716C30.794 33.1379 30.2217 33.375 29.625 33.375ZM17.25 29.625H27.75C27.8495 29.625 27.9448 29.6645 28.0152 29.7348C28.0855 29.8052 28.125 29.9005 28.125 30V31.125C28.1244 31.3227 28.1628 31.5185 28.2381 31.7013C28.3134 31.8841 28.4241 32.0501 28.5637 32.19C28.7738 32.4002 29.0415 32.5434 29.333 32.6012C29.6244 32.6591 29.9265 32.6291 30.2009 32.515C30.4753 32.4009 30.7096 32.2079 30.8741 31.9604C31.0387 31.7129 31.126 31.4222 31.125 31.125V29.715L29.595 28.1888C29.4094 28.296 29.2164 28.39 29.0175 28.47C28.9517 28.5004 28.8841 28.5267 28.815 28.5488L28.755 28.5713L28.7062 28.59C28.5441 28.6469 28.3788 28.6945 28.2113 28.7325C28.0568 28.7703 27.9003 28.7991 27.7425 28.8188C27.6669 28.8332 27.5905 28.8432 27.5138 28.8488H27.27L27 28.875C25.6076 28.875 24.2723 28.3219 23.2877 27.3373C22.3031 26.3527 21.75 25.0174 21.75 23.625C21.75 22.2326 22.3031 20.8973 23.2877 19.9127C24.2723 18.9281 25.6076 18.375 27 18.375H27.525C27.5925 18.375 27.675 18.3938 27.7575 18.405C27.9101 18.4261 28.0616 18.4548 28.2113 18.4913C28.3313 18.5175 28.4438 18.5475 28.56 18.585L28.755 18.6525C28.7861 18.6604 28.8163 18.6717 28.845 18.6863C28.89 18.6863 28.9575 18.7238 29.025 18.7538C29.623 19.0036 30.1687 19.3636 30.6337 19.815C30.812 19.9906 30.9763 20.18 31.125 20.3813V16.875C31.1252 16.3214 31.3295 15.7874 31.6987 15.375H18.75C18.3522 15.375 17.9706 15.533 17.6893 15.8143C17.408 16.0956 17.25 16.4772 17.25 16.875V29.625Z" fill="#4291D8"/>
<path d="M29.6249 33.3752H29.2499C29.1505 33.3752 29.0551 33.3357 28.9847 33.2654C28.9144 33.1951 28.8749 33.0997 28.8749 33.0002V32.9627C28.8736 32.9061 28.8852 32.8499 28.9088 32.7984C28.9323 32.7469 28.9673 32.7014 29.0109 32.6653C29.0546 32.6292 29.1059 32.6035 29.1609 32.59C29.2159 32.5766 29.2733 32.5758 29.3287 32.5877C29.4258 32.6105 29.5251 32.623 29.6249 32.6252C29.7244 32.6252 29.8198 32.6647 29.8901 32.7351C29.9604 32.8054 29.9999 32.9008 29.9999 33.0002C29.9999 33.0997 29.9604 33.1951 29.8901 33.2654C29.8198 33.3357 29.7244 33.3752 29.6249 33.3752ZM33.9974 32.0027C33.8122 32.0031 33.6287 31.9668 33.4575 31.896C33.2863 31.8252 33.1308 31.7213 32.9999 31.5902L29.5987 28.189C29.413 28.2962 29.22 28.3902 29.0212 28.4702C28.9554 28.5006 28.8877 28.5269 28.8187 28.549L28.7587 28.5715L28.7099 28.5902C28.5478 28.6471 28.3825 28.6947 28.2149 28.7327C28.0605 28.7705 27.9039 28.7993 27.7462 28.819C27.6706 28.8334 27.5942 28.8434 27.5174 28.849H27.2737L26.9999 28.8752C26.3105 28.8577 25.6312 28.7046 25.001 28.4246C24.3707 28.1447 23.8017 27.7433 23.3266 27.2434C22.8514 26.7435 22.4794 26.155 22.2317 25.5113C21.984 24.8677 21.8656 24.1815 21.883 23.4921C21.9005 22.8027 22.0536 22.1234 22.3336 21.4931C22.6136 20.8629 23.015 20.2939 23.5149 19.8188C24.0147 19.3436 24.6033 18.9716 25.2469 18.7239C25.8906 18.4762 26.5767 18.3577 27.2662 18.3752H27.5249C27.5924 18.3752 27.6749 18.394 27.7574 18.4052C27.91 18.4263 28.0615 18.4551 28.2112 18.4915C28.3312 18.5177 28.4437 18.5477 28.5599 18.5852L28.7549 18.6527C28.7861 18.6606 28.8162 18.672 28.8449 18.6865C28.8899 18.6865 28.9574 18.724 29.0249 18.754C30.2979 19.2923 31.31 20.307 31.8449 21.5815C32.1121 22.2199 32.2498 22.905 32.2498 23.5971C32.2498 24.2892 32.1121 24.9743 31.8449 25.6127C31.771 25.7984 31.6845 25.9788 31.5862 26.1527L34.9949 29.5615C35.193 29.759 35.3281 30.0108 35.3831 30.2851C35.438 30.5594 35.4103 30.8439 35.3035 31.1024C35.1967 31.361 35.0156 31.5821 34.7831 31.7377C34.5506 31.8932 34.2772 31.9764 33.9974 31.9765V32.0027ZM29.6512 27.3377C29.7005 27.3374 29.7494 27.3469 29.7951 27.3656C29.8408 27.3842 29.8824 27.4117 29.9174 27.4465L33.5287 31.0577C33.6539 31.1789 33.8213 31.2467 33.9955 31.2467C34.1698 31.2467 34.3372 31.1789 34.4624 31.0577C34.5243 30.9964 34.5735 30.9233 34.607 30.8429C34.6405 30.7624 34.6578 30.6761 34.6578 30.589C34.6578 30.5018 34.6405 30.4155 34.607 30.3351C34.5735 30.2546 34.5243 30.1816 34.4624 30.1202L30.8474 26.5052C30.7869 26.4444 30.7491 26.3648 30.7402 26.2795C30.7313 26.1942 30.752 26.1084 30.7987 26.0365C30.9381 25.821 31.0562 25.5924 31.1512 25.354C31.3833 24.8073 31.502 24.2191 31.4999 23.6252C31.5018 23.0317 31.3845 22.4438 31.1549 21.8965C30.6958 20.802 29.8261 19.931 28.7324 19.4702L28.5674 19.4065L28.3237 19.324C28.2337 19.294 28.1362 19.2715 28.0387 19.2452C27.9412 19.219 27.7799 19.1927 27.6449 19.174L27.4687 19.1515H27.2474L26.9999 19.1252C25.8064 19.1252 24.6618 19.5993 23.8179 20.4432C22.974 21.2872 22.4999 22.4317 22.4999 23.6252C22.5001 23.9749 22.5403 24.3234 22.6199 24.664C22.8617 25.689 23.4553 26.5968 24.2974 27.2293C25.1396 27.8617 26.1768 28.1788 27.2287 28.1252H27.4387C27.5029 28.1207 27.5668 28.1119 27.6299 28.099C27.7673 28.0823 27.9037 28.0585 28.0387 28.0277C28.1812 27.9902 28.3199 27.9527 28.4587 27.9077H28.5037L28.5674 27.8852L28.7249 27.8215C28.9767 27.7205 29.2178 27.5948 29.4449 27.4465C29.4993 27.3879 29.5721 27.3495 29.6512 27.3377ZM26.9999 27.3752C26.2248 27.3745 25.469 27.1336 24.8364 26.6857C24.2038 26.2378 23.7255 25.6048 23.4674 24.874C23.3213 24.4739 23.2477 24.0511 23.2499 23.6252C23.2499 22.6307 23.645 21.6768 24.3483 20.9736C25.0515 20.2703 26.0054 19.8752 26.9999 19.8752C27.3735 19.8759 27.745 19.9315 28.1024 20.0402L28.2374 20.089H28.2599L28.4174 20.149C28.4566 20.161 28.4943 20.1773 28.5299 20.1977C28.5723 20.2139 28.6136 20.2327 28.6537 20.254L28.8562 20.359C28.9237 20.3965 29.0024 20.449 29.0812 20.4977C29.594 20.8403 30.0144 21.3041 30.3051 21.848C30.5958 22.3919 30.7479 22.9991 30.7479 23.6158C30.7479 24.2326 30.5958 24.8398 30.3051 25.3837C30.0144 25.9276 29.594 26.3914 29.0812 26.734C29.0061 26.7884 28.9271 26.8373 28.8449 26.8802C28.7887 26.914 28.7249 26.9477 28.6612 26.9777C28.6126 27.0033 28.5625 27.0259 28.5112 27.0452C28.4818 27.063 28.4503 27.0769 28.4174 27.0865L28.2749 27.1427H28.2224L28.1137 27.1802C27.7546 27.3018 27.379 27.3676 26.9999 27.3752ZM26.9999 20.6252C26.2043 20.6252 25.4412 20.9413 24.8786 21.5039C24.316 22.0665 23.9999 22.8296 23.9999 23.6252C23.9983 23.9653 24.0567 24.303 24.1724 24.6227C24.3787 25.2079 24.7615 25.7148 25.2679 26.0734C25.7742 26.4321 26.3794 26.6248 26.9999 26.6252C27.2976 26.6253 27.5935 26.5798 27.8774 26.4902L27.9937 26.4527L28.1287 26.4002H28.1849L28.2262 26.3777L28.3012 26.3402L28.3499 26.3177C28.4019 26.2999 28.4521 26.2773 28.4999 26.2502C28.5712 26.2127 28.6274 26.1752 28.6874 26.1377C29.0973 25.8636 29.4334 25.4926 29.6658 25.0576C29.8981 24.6227 30.0197 24.1371 30.0197 23.644C30.0197 23.1508 29.8981 22.6653 29.6658 22.2303C29.4334 21.7953 29.0973 21.4244 28.6874 21.1502C28.6312 21.1127 28.5749 21.0752 28.5187 21.0452C28.4764 21.0188 28.4326 20.995 28.3874 20.974L28.3387 20.9515L28.2637 20.914L28.2112 20.8915C28.1955 20.8868 28.1805 20.8806 28.1662 20.8727L28.0312 20.824L27.9149 20.7827C27.6198 20.6836 27.3112 20.6305 26.9999 20.6252Z" fill="#4291D8"/>
<path d="M27 25.5H26.25C26.1505 25.5 26.0552 25.4605 25.9848 25.3902C25.9145 25.3198 25.875 25.2245 25.875 25.125C25.875 25.0255 25.9145 24.9302 25.9848 24.8598C26.0552 24.7895 26.1505 24.75 26.25 24.75H27C27.0995 24.75 27.1948 24.7105 27.2652 24.6402C27.3355 24.5698 27.375 24.4745 27.375 24.375C27.375 24.2755 27.3355 24.1802 27.2652 24.1098C27.1948 24.0395 27.0995 24 27 24C26.7016 24 26.4155 23.8815 26.2045 23.6705C25.9935 23.4595 25.875 23.1734 25.875 22.875C25.875 22.5766 25.9935 22.2905 26.2045 22.0795C26.4155 21.8685 26.7016 21.75 27 21.75H27.75C27.8495 21.75 27.9448 21.7895 28.0152 21.8598C28.0855 21.9302 28.125 22.0255 28.125 22.125C28.125 22.2245 28.0855 22.3198 28.0152 22.3902C27.9448 22.4605 27.8495 22.5 27.75 22.5H27C26.9005 22.5 26.8052 22.5395 26.7348 22.6098C26.6645 22.6802 26.625 22.7755 26.625 22.875C26.625 22.9745 26.6645 23.0698 26.7348 23.1402C26.8052 23.2105 26.9005 23.25 27 23.25C27.2984 23.25 27.5845 23.3685 27.7955 23.5795C28.0065 23.7905 28.125 24.0766 28.125 24.375C28.125 24.6734 28.0065 24.9595 27.7955 25.1705C27.5845 25.3815 27.2984 25.5 27 25.5Z" fill="#4291D8"/>
<path d="M27 22.5C26.9005 22.5 26.8052 22.4605 26.7348 22.3902C26.6645 22.3198 26.625 22.2245 26.625 22.125V21.375C26.625 21.2755 26.6645 21.1802 26.7348 21.1098C26.8052 21.0395 26.9005 21 27 21C27.0995 21 27.1948 21.0395 27.2652 21.1098C27.3355 21.1802 27.375 21.2755 27.375 21.375V22.125C27.375 22.2245 27.3355 22.3198 27.2652 22.3902C27.1948 22.4605 27.0995 22.5 27 22.5ZM27 26.25C26.9005 26.25 26.8052 26.2105 26.7348 26.1402C26.6645 26.0698 26.625 25.9745 26.625 25.875V25.125C26.625 25.0255 26.6645 24.9302 26.7348 24.8598C26.8052 24.7895 26.9005 24.75 27 24.75C27.0995 24.75 27.1948 24.7895 27.2652 24.8598C27.3355 24.9302 27.375 25.0255 27.375 25.125V25.875C27.375 25.9745 27.3355 26.0698 27.2652 26.1402C27.1948 26.2105 27.0995 26.25 27 26.25ZM21.75 17.625H19.125C19.0255 17.625 18.9302 17.5855 18.8598 17.5152C18.7895 17.4448 18.75 17.3495 18.75 17.25C18.75 17.1505 18.7895 17.0552 18.8598 16.9848C18.9302 16.9145 19.0255 16.875 19.125 16.875H21.75C21.8495 16.875 21.9448 16.9145 22.0152 16.9848C22.0855 17.0552 22.125 17.1505 22.125 17.25C22.125 17.3495 22.0855 17.4448 22.0152 17.5152C21.9448 17.5855 21.8495 17.625 21.75 17.625ZM21.75 19.5H19.125C19.0255 19.5 18.9302 19.4605 18.8598 19.3902C18.7895 19.3198 18.75 19.2245 18.75 19.125C18.75 19.0255 18.7895 18.9302 18.8598 18.8598C18.9302 18.7895 19.0255 18.75 19.125 18.75H21.75C21.8495 18.75 21.9448 18.7895 22.0152 18.8598C22.0855 18.9302 22.125 19.0255 22.125 19.125C22.125 19.2245 22.0855 19.3198 22.0152 19.3902C21.9448 19.4605 21.8495 19.5 21.75 19.5Z" fill="#4291D8"/>
</svg>
