<svg width="48" height="48" viewBox="0 0 48 48" fill="none" xmlns="http://www.w3.org/2000/svg">
<rect width="48" height="48" rx="24" fill="#70BBFD" fill-opacity="0.2"/>
<path d="M32.25 33.375H14.25C14.0038 33.375 13.76 33.3265 13.5325 33.2323C13.305 33.138 13.0983 32.9999 12.9242 32.8258C12.5725 32.4742 12.375 31.9973 12.375 31.5V16.5C12.375 16.0027 12.5725 15.5258 12.9242 15.1742C13.2758 14.8225 13.7527 14.625 14.25 14.625H32.25C32.7473 14.625 33.2242 14.8225 33.5758 15.1742C33.9275 15.5258 34.125 16.0027 34.125 16.5V31.5C34.125 31.9973 33.9275 32.4742 33.5758 32.8258C33.2242 33.1775 32.7473 33.375 32.25 33.375ZM14.25 15.375C13.9516 15.375 13.6655 15.4935 13.4545 15.7045C13.2435 15.9155 13.125 16.2016 13.125 16.5V31.5C13.125 31.7984 13.2435 32.0845 13.4545 32.2955C13.6655 32.5065 13.9516 32.625 14.25 32.625H32.25C32.5484 32.625 32.8345 32.5065 33.0455 32.2955C33.2565 32.0845 33.375 31.7984 33.375 31.5V16.5C33.375 16.2016 33.2565 15.9155 33.0455 15.7045C32.8345 15.4935 32.5484 15.375 32.25 15.375H14.25Z" fill="#4291D8"/>
<path d="M33.75 33.375H32.25C32.1505 33.375 32.0552 33.3355 31.9848 33.2652C31.9145 33.1948 31.875 33.0995 31.875 33C31.875 32.9005 31.9145 32.8052 31.9848 32.7348C32.0552 32.6645 32.1505 32.625 32.25 32.625C32.5484 32.625 32.8345 32.5065 33.0455 32.2955C33.2565 32.0845 33.375 31.7984 33.375 31.5V16.5C33.375 16.2016 33.2565 15.9155 33.0455 15.7045C32.8345 15.4935 32.5484 15.375 32.25 15.375C32.1505 15.375 32.0552 15.3355 31.9848 15.2652C31.9145 15.1948 31.875 15.0995 31.875 15C31.875 14.9005 31.9145 14.8052 31.9848 14.7348C32.0552 14.6645 32.1505 14.625 32.25 14.625H33.75C34.2473 14.625 34.7242 14.8225 35.0758 15.1742C35.4275 15.5258 35.625 16.0027 35.625 16.5V31.5C35.625 31.9973 35.4275 32.4742 35.0758 32.8258C34.7242 33.1775 34.2473 33.375 33.75 33.375ZM33.75 32.625C34.0484 32.625 34.3345 32.5065 34.5455 32.2955C34.7565 32.0845 34.875 31.7984 34.875 31.5V16.5C34.875 16.2016 34.7565 15.9155 34.5455 15.7045C34.3345 15.4935 34.0484 15.375 33.75 15.375C33.9934 15.6996 34.125 16.0943 34.125 16.5V31.5C34.125 31.9057 33.9934 32.3004 33.75 32.625Z" fill="#4291D8"/>
<path d="M19.875 19.125H13.125C13.0255 19.125 12.9302 19.0855 12.8598 19.0152C12.7895 18.9448 12.75 18.8495 12.75 18.75C12.75 18.6505 12.7895 18.5552 12.8598 18.4848C12.9302 18.4145 13.0255 18.375 13.125 18.375H19.7213L21.1088 16.9837C21.1438 16.949 21.1853 16.9215 21.231 16.9028C21.2767 16.8842 21.3256 16.8747 21.375 16.875H35.25C35.3495 16.875 35.4448 16.9145 35.5152 16.9848C35.5855 17.0552 35.625 17.1505 35.625 17.25C35.625 17.3495 35.5855 17.4448 35.5152 17.5152C35.4448 17.5855 35.3495 17.625 35.25 17.625H21.5287L20.1412 19.0162C20.1062 19.051 20.0647 19.0785 20.019 19.0972C19.9733 19.1158 19.9244 19.1253 19.875 19.125ZM15 17.25H14.625C14.5255 17.25 14.4302 17.2105 14.3598 17.1402C14.2895 17.0698 14.25 16.9745 14.25 16.875C14.25 16.7755 14.2895 16.6802 14.3598 16.6098C14.4302 16.5395 14.5255 16.5 14.625 16.5H15C15.0995 16.5 15.1948 16.5395 15.2652 16.6098C15.3355 16.6802 15.375 16.7755 15.375 16.875C15.375 16.9745 15.3355 17.0698 15.2652 17.1402C15.1948 17.2105 15.0995 17.25 15 17.25ZM16.875 17.25H16.5C16.4005 17.25 16.3052 17.2105 16.2348 17.1402C16.1645 17.0698 16.125 16.9745 16.125 16.875C16.125 16.7755 16.1645 16.6802 16.2348 16.6098C16.3052 16.5395 16.4005 16.5 16.5 16.5H16.875C16.9745 16.5 17.0698 16.5395 17.1402 16.6098C17.2105 16.6802 17.25 16.7755 17.25 16.875C17.25 16.9745 17.2105 17.0698 17.1402 17.1402C17.0698 17.2105 16.9745 17.25 16.875 17.25ZM18.75 17.25H18.375C18.2755 17.25 18.1802 17.2105 18.1098 17.1402C18.0395 17.0698 18 16.9745 18 16.875C18 16.7755 18.0395 16.6802 18.1098 16.6098C18.1802 16.5395 18.2755 16.5 18.375 16.5H18.75C18.8495 16.5 18.9448 16.5395 19.0152 16.6098C19.0855 16.6802 19.125 16.7755 19.125 16.875C19.125 16.9745 19.0855 17.0698 19.0152 17.1402C18.9448 17.2105 18.8495 17.25 18.75 17.25ZM18.75 26.625H15.75C15.6505 26.625 15.5552 26.5855 15.4848 26.5152C15.4145 26.4448 15.375 26.3495 15.375 26.25V23.25C15.375 23.1505 15.4145 23.0552 15.4848 22.9848C15.5552 22.9145 15.6505 22.875 15.75 22.875H21.75C21.8495 22.875 21.9448 22.9145 22.0152 22.9848C22.0855 23.0552 22.125 23.1505 22.125 23.25C22.125 24.1451 21.7694 25.0035 21.1365 25.6365C20.5036 26.2694 19.6451 26.625 18.75 26.625ZM16.125 25.875H18.75C19.3813 25.8752 19.9916 25.6478 20.4689 25.2345C20.9462 24.8213 21.2586 24.2499 21.3488 23.625H16.125V25.875Z" fill="#4291D8"/>
<path d="M20.625 28.125H17.25C16.7527 28.125 16.2758 27.9275 15.9242 27.5758C15.5725 27.2242 15.375 26.7473 15.375 26.25V22.875C15.375 22.6761 15.296 22.4853 15.1553 22.3447C15.0147 22.204 14.8239 22.125 14.625 22.125C14.5255 22.125 14.4302 22.0855 14.3598 22.0152C14.2895 21.9448 14.25 21.8495 14.25 21.75C14.25 21.6505 14.2895 21.5552 14.3598 21.4848C14.4302 21.4145 14.5255 21.375 14.625 21.375C15.0228 21.375 15.4044 21.533 15.6857 21.8143C15.967 22.0956 16.125 22.4772 16.125 22.875V26.25C16.125 26.5484 16.2435 26.8345 16.4545 27.0455C16.6655 27.2565 16.9516 27.375 17.25 27.375H20.625C20.7245 27.375 20.8198 27.4145 20.8902 27.4848C20.9605 27.5552 21 27.6505 21 27.75C21 27.8495 20.9605 27.9448 20.8902 28.0152C20.8198 28.0855 20.7245 28.125 20.625 28.125Z" fill="#4291D8"/>
<path d="M16.875 29.625C16.6525 29.625 16.435 29.559 16.25 29.4354C16.065 29.3118 15.9208 29.1361 15.8356 28.9305C15.7505 28.725 15.7282 28.4988 15.7716 28.2805C15.815 28.0623 15.9222 27.8618 16.0795 27.7045C16.2368 27.5472 16.4373 27.44 16.6555 27.3966C16.8738 27.3532 17.1 27.3755 17.3055 27.4606C17.5111 27.5458 17.6868 27.69 17.8104 27.875C17.934 28.06 18 28.2775 18 28.5C18 28.7984 17.8815 29.0845 17.6705 29.2955C17.4595 29.5065 17.1734 29.625 16.875 29.625ZM16.875 28.125C16.8008 28.125 16.7283 28.147 16.6667 28.1882C16.605 28.2294 16.5569 28.288 16.5285 28.3565C16.5002 28.425 16.4927 28.5004 16.5072 28.5732C16.5217 28.6459 16.5574 28.7127 16.6098 28.7652C16.6623 28.8176 16.7291 28.8533 16.8018 28.8678C16.8746 28.8823 16.95 28.8748 17.0185 28.8465C17.087 28.8181 17.1456 28.77 17.1868 28.7083C17.228 28.6467 17.25 28.5742 17.25 28.5C17.25 28.4005 17.2105 28.3052 17.1402 28.2348C17.0698 28.1645 16.9745 28.125 16.875 28.125ZM20.625 29.625C20.4025 29.625 20.185 29.559 20 29.4354C19.815 29.3118 19.6708 29.1361 19.5856 28.9305C19.5005 28.725 19.4782 28.4988 19.5216 28.2805C19.565 28.0623 19.6722 27.8618 19.8295 27.7045C19.9868 27.5472 20.1873 27.44 20.4055 27.3966C20.6238 27.3532 20.85 27.3755 21.0555 27.4606C21.2611 27.5458 21.4368 27.69 21.5604 27.875C21.684 28.06 21.75 28.2775 21.75 28.5C21.75 28.7984 21.6315 29.0845 21.4205 29.2955C21.2095 29.5065 20.9234 29.625 20.625 29.625ZM20.625 28.125C20.5508 28.125 20.4783 28.147 20.4167 28.1882C20.355 28.2294 20.3069 28.288 20.2785 28.3565C20.2502 28.425 20.2427 28.5004 20.2572 28.5732C20.2717 28.6459 20.3074 28.7127 20.3598 28.7652C20.4123 28.8176 20.4791 28.8533 20.5518 28.8678C20.6246 28.8823 20.7 28.8748 20.7685 28.8465C20.837 28.8181 20.8956 28.77 20.9368 28.7083C20.978 28.6467 21 28.5742 21 28.5C21 28.4005 20.9605 28.3052 20.8902 28.2348C20.8198 28.1645 20.7245 28.125 20.625 28.125ZM30.75 31.5H25.5C25.4005 31.5 25.3052 31.4605 25.2348 31.3902C25.1645 31.3198 25.125 31.2245 25.125 31.125V29.25C25.125 29.1505 25.1645 29.0552 25.2348 28.9848C25.3052 28.9145 25.4005 28.875 25.5 28.875H30.75C30.8495 28.875 30.9448 28.9145 31.0152 28.9848C31.0855 29.0552 31.125 29.1505 31.125 29.25V31.125C31.125 31.2245 31.0855 31.3198 31.0152 31.3902C30.9448 31.4605 30.8495 31.5 30.75 31.5ZM25.875 30.75H30.375V29.625H25.875V30.75ZM31.5 21.375H24.75C24.6505 21.375 24.5552 21.3355 24.4848 21.2652C24.4145 21.1948 24.375 21.0995 24.375 21C24.375 20.9005 24.4145 20.8052 24.4848 20.7348C24.5552 20.6645 24.6505 20.625 24.75 20.625H31.5C31.5995 20.625 31.6948 20.6645 31.7652 20.7348C31.8355 20.8052 31.875 20.9005 31.875 21C31.875 21.0995 31.8355 21.1948 31.7652 21.2652C31.6948 21.3355 31.5995 21.375 31.5 21.375ZM31.5 23.25H24.75C24.6505 23.25 24.5552 23.2105 24.4848 23.1402C24.4145 23.0698 24.375 22.9745 24.375 22.875C24.375 22.7755 24.4145 22.6802 24.4848 22.6098C24.5552 22.5395 24.6505 22.5 24.75 22.5H31.5C31.5995 22.5 31.6948 22.5395 31.7652 22.6098C31.8355 22.6802 31.875 22.7755 31.875 22.875C31.875 22.9745 31.8355 23.0698 31.7652 23.1402C31.6948 23.2105 31.5995 23.25 31.5 23.25ZM31.5 25.125H24.75C24.6505 25.125 24.5552 25.0855 24.4848 25.0152C24.4145 24.9448 24.375 24.8495 24.375 24.75C24.375 24.6505 24.4145 24.5552 24.4848 24.4848C24.5552 24.4145 24.6505 24.375 24.75 24.375H31.5C31.5995 24.375 31.6948 24.4145 31.7652 24.4848C31.8355 24.5552 31.875 24.6505 31.875 24.75C31.875 24.8495 31.8355 24.9448 31.7652 25.0152C31.6948 25.0855 31.5995 25.125 31.5 25.125ZM31.5 27H24.75C24.6505 27 24.5552 26.9605 24.4848 26.8902C24.4145 26.8198 24.375 26.7245 24.375 26.625C24.375 26.5255 24.4145 26.4302 24.4848 26.3598C24.5552 26.2895 24.6505 26.25 24.75 26.25H31.5C31.5995 26.25 31.6948 26.2895 31.7652 26.3598C31.8355 26.4302 31.875 26.5255 31.875 26.625C31.875 26.7245 31.8355 26.8198 31.7652 26.8902C31.6948 26.9605 31.5995 27 31.5 27Z" fill="#4291D8"/>
</svg>
