<svg width="48" height="48" xmlns="http://www.w3.org/2000/svg">
    <g>
        <title>background</title>
        <rect x="-1" y="-1" width="50" height="50" id="canvas_background" fill="none"/>
    </g>

    <g>
        <title>Layer 1</title>
        <rect width="48" height="48" rx="24" fill="#70BBFD" fill-opacity="0.2" id="svg_1"/>
        <path fill="#4291d8" stroke="null" stroke-width="null" stroke-opacity="null" fill-opacity="0.4" d="m28.204256,25.677261c-0.527532,-0.89302 -1.17293,-1.616015 -1.820305,-2.121776c-0.755387,0.518405 -1.675412,0.834076 -2.678417,0.834076c-1.00497,0 -1.926315,-0.316284 -2.68037,-0.834076c-0.647381,0.50576 -1.293436,1.228756 -1.822258,2.121776c-1.227593,2.073334 -1.362595,4.200049 -0.302306,4.751478c0.474847,0.248403 0.972711,0.063258 1.487067,-0.401159c-0.090224,0.470891 -0.142916,0.98127 -0.142916,1.515115c0,2.371731 0.983253,4.292939 2.195012,4.292939c0.730367,0 1.091916,-0.699557 1.26577,-1.770629c0.173216,1.071072 0.534765,1.770629 1.262486,1.770629c1.213742,0 2.197007,-1.921208 2.197007,-4.292939c0,-0.533846 -0.052704,-1.044224 -0.144887,-1.515115c0.515658,0.464417 1.012866,0.649562 1.489026,0.401159c1.059639,-0.551429 0.922641,-2.678144 -0.304909,-4.751484l0,0l0,0.000006zm-4.500018,-2.096784c2.038925,0 3.692597,-1.549675 3.692597,-3.461309s-1.653671,-3.461315 -3.692597,-3.461315c-2.039613,0 -3.694592,1.549979 -3.694592,3.461315s1.654979,3.461309 3.694592,3.461309z" id="svg_11"/>
        <path fill="#4291d8" stroke="null" stroke-width="null" stroke-opacity="null" fill-opacity="0.4" d="m39.020582,21.79971c-0.527532,-0.89302 -1.17293,-1.616015 -1.820305,-2.121776c-0.755387,0.518405 -1.675412,0.834076 -2.678417,0.834076c-1.00497,0 -1.926315,-0.316284 -2.68037,-0.834076c-0.647381,0.50576 -1.293436,1.228756 -1.822258,2.121776c-1.227593,2.073334 -1.362595,4.200049 -0.302306,4.751478c0.474847,0.248403 0.972711,0.063258 1.487067,-0.401159c-0.090224,0.470891 -0.142916,0.98127 -0.142916,1.515115c0,2.371731 0.983253,4.292939 2.195012,4.292939c0.730367,0 1.091916,-0.699557 1.26577,-1.770629c0.173216,1.071072 0.534765,1.770629 1.262486,1.770629c1.213742,0 2.197007,-1.921208 2.197007,-4.292939c0,-0.533846 -0.052704,-1.044224 -0.144887,-1.515115c0.515658,0.464417 1.012866,0.649562 1.489026,0.401159c1.059639,-0.551429 0.922641,-2.678144 -0.304909,-4.751484l0,0l0,0.000006zm-4.500018,-2.096784c2.038925,0 3.692597,-1.549675 3.692597,-3.461309s-1.653671,-3.461315 -3.692597,-3.461315c-2.039613,0 -3.694592,1.549979 -3.694592,3.461315s1.654979,3.461309 3.694592,3.461309z" id="svg_4"/>
        <path fill="#4291d8" stroke="null" stroke-width="null" stroke-opacity="null" fill-opacity="0.4" d="m17.183848,21.595628c-0.527532,-0.89302 -1.17293,-1.616015 -1.820305,-2.121776c-0.755387,0.518405 -1.675412,0.834076 -2.678417,0.834076c-1.00497,0 -1.926315,-0.316284 -2.68037,-0.834076c-0.647381,0.50576 -1.293436,1.228756 -1.822258,2.121776c-1.227593,2.073334 -1.362595,4.200049 -0.302306,4.751478c0.474847,0.248403 0.972711,0.063258 1.487067,-0.401159c-0.090224,0.470891 -0.142916,0.98127 -0.142916,1.515115c0,2.371731 0.983253,4.292939 2.195012,4.292939c0.730367,0 1.091916,-0.699557 1.26577,-1.770629c0.173216,1.071072 0.534765,1.770629 1.262486,1.770629c1.213742,0 2.197007,-1.921208 2.197007,-4.292939c0,-0.533846 -0.052704,-1.044224 -0.144887,-1.515115c0.515658,0.464417 1.012866,0.649562 1.489026,0.401159c1.059639,-0.551429 0.922641,-2.678144 -0.304909,-4.751484l0,0l0,0.000006zm-4.500018,-2.096784c2.038925,0 3.692597,-1.549675 3.692597,-3.461309s-1.653671,-3.461315 -3.692597,-3.461315c-2.039613,0 -3.694592,1.549979 -3.694592,3.461315s1.654979,3.461309 3.694592,3.461309z" id="svg_5"/>
    </g>
</svg>